<?xml version="1.0" standalone="no"?>
<!DOCTYPE svg PUBLIC "-//W3C//DTD SVG 20010904//EN"
 "http://www.w3.org/TR/2001/REC-SVG-20010904/DTD/svg10.dtd">
<svg version="1.0" xmlns="http://www.w3.org/2000/svg"
 width="500.000000pt" height="500.000000pt" viewBox="0 0 500.000000 500.000000"
 preserveAspectRatio="xMidYMid meet">
<metadata>
Created by potrace 1.14, written by Peter Selinger 2001-2017
</metadata>
<g transform="translate(0.000000,500.000000) scale(0.100000,-0.100000)"
fill="#000000" stroke="none">
<path d="M272 4022 c-94 -26 -156 -122 -145 -224 6 -54 21 -82 93 -183 31 -44
191 -269 355 -500 164 -231 331 -466 372 -522 l73 -102 0 -554 c0 -601 1 -612
56 -684 38 -50 103 -76 189 -77 142 0 216 49 253 169 3 11 8 274 9 584 l4 563
174 247 c211 298 181 255 271 381 41 58 85 121 98 140 13 19 90 127 170 240
80 113 153 221 163 240 12 23 18 57 18 101 0 54 -5 72 -27 106 -76 116 -283
116 -396 0 -22 -23 -80 -99 -129 -168 -273 -390 -587 -829 -592 -829 -3 1 -19
20 -35 43 -262 377 -650 919 -681 950 -79 78 -189 108 -293 79z"/>
<path d="M2736 4025 c-131 -33 -196 -178 -135 -300 13 -26 341 -491 751 -1065
l118 -165 0 -115 c0 -63 1 -311 1 -551 0 -461 3 -495 48 -562 52 -80 193 -115
309 -77 62 20 85 39 121 100 l26 45 5 580 5 580 128 180 c252 353 608 858 694
984 75 108 90 164 65 241 -27 83 -86 126 -184 133 -82 6 -167 -23 -221 -76
-24 -23 -133 -168 -242 -322 -500 -707 -486 -688 -500 -674 -11 11 -145 199
-285 399 -284 407 -397 562 -430 591 -78 71 -178 98 -274 74z"/>
<path d="M231 1059 c-61 -13 -111 -79 -111 -146 0 -53 30 -104 75 -129 l38
-22 2266 0 2266 0 37 21 c42 23 78 84 78 131 0 42 -29 94 -68 124 l-35 27
-2257 0 c-1242 0 -2272 -3 -2289 -6z"/>
</g>
</svg>
